<?xml version="1.0" encoding="UTF-8"?>
<svg version="1.1" xmlns="http://www.w3.org/2000/svg" width="512" height="512">
<path d="M0 0 C168.96 0 337.92 0 512 0 C512 168.96 512 337.92 512 512 C343.04 512 174.08 512 0 512 C0 343.04 0 174.08 0 0 Z " fill="#DF052D" transform="translate(0,0)"/>
<path d="M0 0 C10.82080788 7.31507897 22.14129094 17.44485884 25.46484375 30.46484375 C26.03984053 35.47003151 26.20940385 40.48354556 26.37890625 45.515625 C26.43824518 46.98004644 26.49884555 48.44441724 26.56063843 49.90873718 C26.71970849 53.74931926 26.86338472 57.59031656 27.00323486 61.43164062 C27.20241515 66.82621204 27.42255947 72.21997436 27.64047241 77.61381531 C27.75616523 80.47855609 27.86609302 83.34342105 27.97109985 86.20857239 C28.18364908 91.76376654 28.40851553 97.28185621 29.00585938 102.81005859 C29.69399173 109.82413908 29.54323401 116.85131153 29.47887802 123.88976479 C29.45658183 126.44207097 29.44268355 128.99430013 29.43118286 131.54667664 C29.39782971 138.79497661 29.35575943 146.04314691 29.29345703 153.29125977 C29.25576342 157.74540572 29.2327786 162.19942581 29.21915054 166.6537075 C29.21112019 168.34297412 29.19754525 170.03222416 29.17821884 171.72139931 C29.15166702 174.08045654 29.14384114 176.43890731 29.14013672 178.7980957 C29.12160141 179.83385239 29.12160141 179.83385239 29.10269165 180.89053345 C29.12170976 185.49559827 30.23552354 188.47864708 32.46484375 192.46484375 C32.46484375 193.12484375 32.46484375 193.78484375 32.46484375 194.46484375 C35.42413494 191.7096416 37.50166201 188.99857087 39.46484375 185.46484375 C44.21484375 186.21484375 44.21484375 186.21484375 46.46484375 188.46484375 C48.22771944 192.34902214 48.48542659 195.3199295 47.46484375 199.46484375 C42.61139798 206.32786532 35.45819214 212.80432997 28.46484375 217.46484375 C18.53088487 218.52919649 8.31379273 215.63056824 0.46484375 209.46484375 C-5.45512383 204.21759976 -8.85173499 198.48239982 -11.16015625 190.96484375 C-11.46566406 190.00771484 -11.46566406 190.00771484 -11.77734375 189.03125 C-12.36872156 187.17750802 -12.95206699 185.32120954 -13.53515625 183.46484375 C-13.91414062 182.50578125 -14.293125 181.54671875 -14.68359375 180.55859375 C-15.80639529 176.47942486 -15.70325173 172.66723066 -15.53515625 168.46484375 C-16.23600342 168.47008057 -16.93685059 168.47531738 -17.65893555 168.48071289 C-20.84683326 168.50155227 -24.03471661 168.51452607 -27.22265625 168.52734375 C-28.32544922 168.53572266 -29.42824219 168.54410156 -30.56445312 168.55273438 C-31.63115234 168.55595703 -32.69785156 168.55917969 -33.796875 168.5625 C-34.77615967 168.56773682 -35.75544434 168.57297363 -36.7644043 168.57836914 C-39.47079964 168.46748062 -41.88753687 168.0088468 -44.53515625 167.46484375 C-46.44558401 167.32327447 -48.35911229 167.22009673 -50.2734375 167.1484375 C-51.34013672 167.10654297 -52.40683594 167.06464844 -53.50585938 167.02148438 C-54.60865234 166.98216797 -55.71144531 166.94285156 -56.84765625 166.90234375 C-58.53084961 166.83756836 -58.53084961 166.83756836 -60.24804688 166.77148438 C-63.01030194 166.66569588 -65.77264255 166.56360703 -68.53515625 166.46484375 C-67.97021407 169.61426015 -67.37977524 172.7584068 -66.78515625 175.90234375 C-66.62789063 176.78083984 -66.470625 177.65933594 -66.30859375 178.56445312 C-65.14295161 184.63924196 -63.29310153 189.9294953 -60.53515625 195.46484375 C-56.79471876 195.13480515 -55.46503622 194.40494956 -52.53515625 191.90234375 C-49.53515625 189.46484375 -49.53515625 189.46484375 -46.84765625 188.83984375 C-44.53515625 189.46484375 -44.53515625 189.46484375 -42.78515625 191.46484375 C-41.12351093 195.45279253 -40.53515625 198.09977828 -40.53515625 202.46484375 C-42.72265625 205.27734375 -42.72265625 205.27734375 -45.53515625 207.46484375 C-46.13328125 208.04234375 -46.73140625 208.61984375 -47.34765625 209.21484375 C-55.49148366 213.86845941 -70.45016631 212.64111612 -79.32421875 210.37109375 C-92.93941403 206.35937366 -102.07365991 200.11401903 -108.98657227 187.48608398 C-109.56749634 186.39275757 -109.56749634 186.39275757 -110.16015625 185.27734375 C-110.55968506 184.52718994 -110.95921387 183.77703613 -111.37084961 183.00415039 C-114.19206539 177.53211201 -115.85049524 172.62679284 -116.53515625 166.46484375 C-117.09460938 166.47386719 -117.6540625 166.48289062 -118.23046875 166.4921875 C-127.38398872 166.15371329 -136.84255916 162.35264421 -143.1953125 155.6640625 C-145.60939094 152.36334424 -147.68618575 149.03827652 -149.66015625 145.46484375 C-150.16095703 144.57925781 -150.16095703 144.57925781 -150.671875 143.67578125 C-157.37715555 131.73775234 -160.57417011 120.93453791 -157.91015625 107.15234375 C-156.19396718 102.54983669 -153.74414176 99.14742 -150.53515625 95.46484375 C-149.81779297 94.61986328 -149.81779297 94.61986328 -149.0859375 93.7578125 C-146.76914324 91.82617799 -144.43929634 92.05839222 -141.53125 92.17578125 C-137.65987559 92.73641081 -135.37389004 94.59718811 -132.72265625 97.33984375 C-131.29621976 99.89241431 -131.29513362 101.58457225 -131.53515625 104.46484375 C-134.6178961 105.45572442 -136.45240516 105.38966908 -139.53515625 104.46484375 C-140.19515625 104.46484375 -140.85515625 104.46484375 -141.53515625 104.46484375 C-141.189161 107.09329152 -140.89990333 108.17871993 -138.77734375 109.84375 C-133.52531521 112.46976427 -128.43297204 114.05572692 -122.66796875 115.1171875 C-121.97904541 115.24927612 -121.29012207 115.38136475 -120.58032227 115.51745605 C-118.89966409 115.83886553 -117.21755085 116.15265094 -115.53515625 116.46484375 C-115.59651911 106.05901952 -115.67373414 95.65344295 -115.77087116 85.24788761 C-115.81549051 80.4155197 -115.85476504 75.58323446 -115.8815918 70.75073242 C-115.90770916 66.08214268 -115.94817068 61.4138725 -115.99834251 56.74548149 C-116.01495438 54.96945628 -116.02650388 53.19337586 -116.03277016 51.41728401 C-115.80300536 35.15816823 -115.80300536 35.15816823 -123.66015625 21.40234375 C-124.45292969 20.5721875 -125.24570313 19.74203125 -126.0625 18.88671875 C-130.32143158 14.71525338 -134.6664501 10.6252274 -139.43359375 7.03515625 C-143.45015019 3.99916758 -143.45015019 3.99916758 -143.97265625 0.71484375 C-143.53515625 -1.53515625 -143.53515625 -1.53515625 -142.53515625 -2.53515625 C-128.2853205 -4.8217578 -112.3222183 -5.96678715 -99.53515625 1.46484375 C-98.55160156 1.96886719 -97.56804687 2.47289062 -96.5546875 2.9921875 C-84.86095612 9.06304144 -78.06606591 16.07671035 -73.64767456 28.63551331 C-72.51431855 32.5365679 -71.84961378 36.33544095 -71.40673828 40.35913086 C-71.32350374 41.0962049 -71.2402692 41.83327894 -71.15451241 42.59268856 C-70.33127841 50.47223315 -70.28117009 58.3048961 -70.33984375 66.21875 C-70.34358924 67.74144807 -70.34642891 69.2641486 -70.34841919 70.78684998 C-70.3559351 74.73061166 -70.37547467 78.67421817 -70.39782715 82.61791992 C-70.41855044 86.66778465 -70.42747659 90.71767528 -70.4375 94.76757812 C-70.45873636 102.66673666 -70.49271993 110.56577073 -70.53515625 118.46484375 C-69.44556107 118.30407852 -68.35596588 118.14331329 -67.23335266 117.97767639 C-63.84093819 117.50724684 -60.56079715 117.26630301 -57.140625 117.1484375 C-55.93599609 117.10654297 -54.73136719 117.06464844 -53.49023438 117.02148438 C-52.24693359 116.98216797 -51.00363281 116.94285156 -49.72265625 116.90234375 C-47.92151367 116.83756836 -47.92151367 116.83756836 -46.08398438 116.77148438 C-36.23193477 116.44325639 -26.39159774 116.42030205 -16.53515625 116.46484375 C-17.98638479 75.07704957 -17.98638479 75.07704957 -21.53515625 33.83984375 C-21.61270142 33.16384125 -21.69024658 32.48783875 -21.7701416 31.79135132 C-22.85180416 17.40993138 -22.85180416 17.40993138 -28.796875 4.8671875 C-29.59738281 4.38378906 -30.39789063 3.90039062 -31.22265625 3.40234375 C-33.671875 1.8671875 -33.671875 1.8671875 -35.53515625 0.46484375 C-35.53515625 -0.52515625 -35.53515625 -1.51515625 -35.53515625 -2.53515625 C-23.55639792 -6.43338195 -11.09984169 -6.33351527 0 0 Z " fill="#FEFBFA" transform="translate(302.53515625,138.53515625)"/>
<path d="M0 0 C16.66103388 0.63129247 29.49640839 5.7885357 41.50390625 17.21875 C48.949387 25.51480993 49.30532741 35.33160783 49.265625 45.92578125 C49.26849518 47.63908882 49.26849518 47.63908882 49.27142334 49.38700867 C49.27278049 51.80170919 49.26911701 54.21641713 49.26074219 56.63110352 C49.25014529 60.26270705 49.26059718 63.89380347 49.2734375 67.52539062 C49.28053125 78.0092361 49.18846755 88.44073314 48.1328125 98.87890625 C48.02129852 100.00780022 48.02129852 100.00780022 47.90753174 101.15950012 C47.26975805 106.60584299 46.01247855 112.03185823 42 116 C38.52556769 117.38820433 34.76247937 117.23747374 31.0625 117.3125 C29.85722656 117.34988281 28.65195313 117.38726562 27.41015625 117.42578125 C23.36785655 116.92107258 21.85491269 115.8447709 19 113 C17.671875 111.2890625 17.671875 111.2890625 16.75 109.625 C16.43546875 109.08101563 16.1209375 108.53703125 15.796875 107.9765625 C14.00872262 103.54124337 13.8714663 98.82289796 13.82641602 94.09326172 C13.81292618 92.95122284 13.79943634 91.80918396 13.78553772 90.63253784 C13.76988014 88.79962692 13.76988014 88.79962692 13.75390625 86.9296875 C13.72095675 84.31510096 13.6877453 81.70051771 13.65429688 79.0859375 C13.60602075 74.98506741 13.56218831 70.88417171 13.52319336 66.78320312 C13.48486927 62.81105996 13.4317097 58.83916477 13.37890625 54.8671875 C13.3704921 53.65739227 13.36207794 52.44759705 13.35340881 51.20114136 C13.24470687 43.61805431 12.4433664 36.44078738 11 29 C10.80676147 27.86541855 10.80676147 27.86541855 10.60961914 26.70791626 C9.07273782 17.83588438 7.30758974 11.7850349 -0.171875 6.1875 C-0.77515625 5.795625 -1.3784375 5.40375 -2 5 C-1.125 1.125 -1.125 1.125 0 0 Z " fill="#F7A308" transform="translate(178,144)"/>
<path d="M0 0 C3.9975016 0.62601003 7.21559598 1.8934106 10.8515625 3.65234375 C11.94984375 4.18150391 13.048125 4.71066406 14.1796875 5.25585938 C15.88511719 6.08827148 15.88511719 6.08827148 17.625 6.9375 C19.34203125 7.76411133 19.34203125 7.76411133 21.09375 8.60742188 C32.6152182 14.18516795 32.6152182 14.18516795 34.0625 17.25 C34.371875 18.1575 34.68125 19.065 35 20 C35.33902344 20.98871094 35.67804688 21.97742188 36.02734375 22.99609375 C37.14705203 26.45414865 38.23582282 29.91513438 39.23120117 33.41113281 C39.70416921 35.003814 40.21095478 36.58745973 40.77246094 38.15112305 C43.36339762 45.63069657 43.54937801 52.88888543 43.6875 60.75 C43.72166016 62.0184375 43.75582031 63.286875 43.79101562 64.59375 C43.88606878 68.39587611 43.95034765 72.19702507 44 76 C44.01683838 77.20100342 44.03367676 78.40200684 44.05102539 79.6394043 C44.10921143 87.24919451 43.76848291 94.73695291 43.0625 102.3125 C42.97548828 103.33794922 42.88847656 104.36339844 42.79882812 105.41992188 C42.13157685 112.86842315 42.13157685 112.86842315 41 114 C37.11236987 114.30976281 33.21094322 114.2785217 29.3125 114.3125 C28.22259766 114.34150391 27.13269531 114.37050781 26.00976562 114.40039062 C19.71687842 114.45018219 15.72791801 114.34130802 11 110 C9.52166035 107.04332069 9.87009438 104.38275815 9.8671875 101.0859375 C9.86623077 100.39746735 9.86527405 99.70899719 9.86428833 98.99966431 C9.8636071 97.53867502 9.86545742 96.07768271 9.86962891 94.61669922 C9.8749292 92.40455094 9.86970758 90.19261028 9.86328125 87.98046875 C9.863943 86.55729122 9.86522615 85.13411383 9.8671875 83.7109375 C9.86887939 81.78193604 9.86887939 81.78193604 9.87060547 79.81396484 C9.98309557 76.4982661 10.32529202 73.30407061 10.77093506 70.01980591 C11.15820335 66.60502419 11.16257611 63.19905106 11.16796875 59.765625 C11.17129715 59.00634705 11.17462555 58.24706909 11.17805481 57.46478271 C11.1830834 55.86812946 11.18546441 54.27146585 11.18530273 52.67480469 C11.18748188 50.27000015 11.20566098 47.86566077 11.22460938 45.4609375 C11.35136771 28.97318289 11.35136771 28.97318289 6.0625 13.5625 C5.30646484 12.14130859 5.30646484 12.14130859 4.53515625 10.69140625 C3.50311417 8.88205004 2.42623619 7.09761396 1.30859375 5.33984375 C0 3 0 3 0 0 Z " fill="#F7A306" transform="translate(280,142)"/>
<path d="M0 0 C5.9049876 4.85052553 8.04191997 11.43900146 8.78857422 18.83496094 C8.937946 21.05023292 9.06717557 23.26692535 9.1796875 25.484375 C9.25331512 26.69768494 9.32694275 27.91099487 9.40280151 29.16107178 C10.2259994 43.46806711 10.66825649 57.79196423 11.06445312 72.11602783 C11.14487363 74.95044536 11.23316847 77.78459581 11.32130814 80.61878204 C11.93231164 100.41712015 12.11450667 120.19261171 12 140 C9.03 140 6.06 140 3 140 C3.00222061 139.31857941 3.00444122 138.63715881 3.00672913 137.93508911 C3.02711891 131.37979203 3.04216506 124.82450432 3.05181217 118.26918221 C3.05693916 114.90241706 3.06442748 111.53569919 3.07543945 108.16894531 C3.17784528 78.51655593 3.17784528 78.51655593 1.48486328 48.92333984 C1.00614957 43.42001559 0.78862282 37.94363822 0.68359375 32.421875 C0.66281265 31.48442444 0.64203156 30.54697388 0.62062073 29.58111572 C0.55614376 26.63747228 0.49672315 23.69375333 0.4375 20.75 C0.39421745 18.73306565 0.35060039 16.71613845 0.30664062 14.69921875 C0.20056979 9.79955308 0.09902793 4.89981286 0 0 Z " fill="#BBBA35" transform="translate(336,177)"/>
<path d="M0 0 C2.7173449 2.6500233 3.54859674 5.26644586 4.25 8.9375 C4.42015625 9.77152344 4.5903125 10.60554688 4.765625 11.46484375 C5.104938 15.13507933 4.8141758 17.90862834 2.57299805 20.9128418 C1.97527588 21.50234619 1.37755371 22.09185059 0.76171875 22.69921875 C0.10623047 23.35083984 -0.54925781 24.00246094 -1.22460938 24.67382812 C-2.25811523 25.6705957 -2.25811523 25.6705957 -3.3125 26.6875 C-3.98990234 27.36361328 -4.66730469 28.03972656 -5.36523438 28.73632812 C-12.53047903 35.77549809 -12.53047903 35.77549809 -18.4375 36.3125 C-31.19633537 35.95343334 -39.60213092 31.59713598 -48.4609375 22.8046875 C-50 21 -50 21 -50 19 C-49.01966797 19.23589844 -49.01966797 19.23589844 -48.01953125 19.4765625 C-44.23925 20.13187646 -40.51333819 20.30097323 -36.6875 20.375 C-35.96626953 20.41238281 -35.24503906 20.44976562 -34.50195312 20.48828125 C-27.48556703 20.60155026 -23.10324208 17.88937262 -18.0480957 13.18261719 C-15.42959185 10.54065418 -12.899154 7.82516739 -10.38085938 5.08789062 C-9.75630859 4.43369141 -9.13175781 3.77949219 -8.48828125 3.10546875 C-7.93696533 2.50887451 -7.38564941 1.91228027 -6.81762695 1.29760742 C-4.40936758 -0.42165364 -2.89549472 -0.36315673 0 0 Z " fill="#BCB935" transform="translate(362,342)"/>
<path d="M0 0 C3.52114756 1.5845164 4.64232098 3.80771603 6.5 7.125 C7.71260877 10.76282632 7.89544552 13.30235999 7.5 17.125 C5.0625 20 5.0625 20 2.5 22.125 C2.005 22.62 2.005 22.62 1.5 23.125 C-1.33972535 23.44851301 -4.18073737 23.6380429 -7.03125 23.84375 C-9.4413605 23.85885265 -9.4413605 23.85885265 -10.5 25.125 C-24.44482182 26.38129025 -38.24501419 24.14355267 -49.7265625 15.609375 C-52.18382803 13.55263292 -54.40506318 11.55782985 -56.5 9.125 C-56.5 8.465 -56.5 7.805 -56.5 7.125 C-55.67822266 7.33394897 -55.67822266 7.33394897 -54.83984375 7.54711914 C-47.06236163 9.32945879 -39.45585901 9.5270531 -31.5 9.5625 C-30.19804687 9.59537109 -28.89609375 9.62824219 -27.5546875 9.66210938 C-19.42326084 9.70728397 -13.27199792 8.82989486 -6.5 4.125 C-5.736875 3.34125 -4.97375 2.5575 -4.1875 1.75 C-2.5 0.125 -2.5 0.125 0 0 Z " fill="#BCB935" transform="translate(270.5,346.875)"/>
<path d="M0 0 C7.70565925 6.69471271 8.8253119 18.48758009 10 28 C10.17039795 28.70350586 10.3407959 29.40701172 10.51635742 30.13183594 C11.17490897 34.03726934 11.12298903 37.84770612 11.09765625 41.80078125 C11.0962413 42.63715622 11.09482635 43.47353119 11.09336853 44.33525085 C11.08779184 46.994371 11.07524365 49.6534055 11.0625 52.3125 C11.05748199 54.12044149 11.05291961 55.9283843 11.04882812 57.73632812 C11.03783004 62.15758484 11.0205815 66.57877793 11 71 C8.03 71 5.06 71 2 71 C1.9845388 69.82062111 1.9845388 69.82062111 1.96876526 68.61741638 C1.87056477 61.18787367 1.7680195 53.75840936 1.66066074 46.3289938 C1.60562536 42.50996568 1.55223776 38.69092968 1.50268555 34.87182617 C1.4547543 31.18241709 1.40240371 27.4930942 1.34705925 23.80378914 C1.3267652 22.40009791 1.30803189 20.99638316 1.29092598 19.59264946 C1.26659277 17.6182693 1.23606687 15.64396846 1.20532227 13.66967773 C1.18977798 12.54826889 1.1742337 11.42686005 1.15821838 10.27146912 C0.99024416 6.79827932 0.54244839 3.43300324 0 0 Z " fill="#BCB635" transform="translate(238,177)"/>
<path d="M0 0 C12.03732485 -0.15130716 23.98395472 0.31055478 36 1 C37.30219812 4.65250693 38.27381553 8.01197084 38.625 11.875 C38.69976562 12.65617187 38.77453125 13.43734375 38.8515625 14.2421875 C38.90054688 14.82226562 38.94953125 15.40234375 39 16 C25.13718069 15.96512498 25.13718069 15.96512498 22.34765625 13.59765625 C22.02667969 13.04980469 21.70570313 12.50195312 21.375 11.9375 C19.30293064 8.69218219 19.30293064 8.69218219 15.97265625 8.5703125 C11.08598013 8.55951322 6.75181756 8.81204561 2 10 C1.34 6.7 0.68 3.4 0 0 Z " fill="#BDB435" transform="translate(243,313)"/>
<path d="M0 0 C0.66 0 1.32 0 2 0 C2.33 2.64 2.66 5.28 3 8 C2.34 8 1.68 8 1 8 C-0.35439668 5.29120665 -0.06501451 2.99066732 0 0 Z " fill="#F8AF2B" transform="translate(314,164)"/>
</svg>
