<?xml version="1.0" standalone="no"?>
<!DOCTYPE svg PUBLIC "-//W3C//DTD SVG 20010904//EN"
 "http://www.w3.org/TR/2001/REC-SVG-20010904/DTD/svg10.dtd">
<svg version="1.0" xmlns="http://www.w3.org/2000/svg"
 width="512.000000pt" height="512.000000pt" viewBox="0 0 512.000000 512.000000"
 preserveAspectRatio="xMidYMid meet">

<g transform="translate(0.000000,512.000000) scale(0.100000,-0.100000)"
fill="#000000" stroke="none">
<path d="M0 2560 l0 -2560 2560 0 2560 0 0 2560 0 2560 -2560 0 -2560 0 0
-2560z m2993 1184 c62 -32 192 -141 226 -190 46 -66 60 -133 71 -336 23 -470
32 -764 29 -1048 -3 -272 -1 -308 14 -337 25 -47 33 -47 59 -1 41 76 91 55
104 -43 l6 -44 -89 -87 c-49 -48 -101 -90 -115 -93 -34 -9 -166 19 -217 44
-21 11 -59 40 -84 65 -38 39 -50 61 -82 158 -21 62 -40 136 -44 163 l-6 50
-135 7 c-176 10 -379 12 -386 5 -15 -14 42 -242 69 -274 16 -21 37 -15 83 22
67 55 93 47 114 -38 15 -56 3 -81 -57 -118 -35 -22 -49 -24 -168 -24 -120 1
-136 3 -210 31 -134 50 -180 94 -261 252 -15 28 -32 75 -38 103 l-12 52 -74
18 c-144 37 -202 87 -287 247 -73 138 -83 289 -26 393 36 67 65 89 119 89 72
0 140 -74 109 -117 -12 -15 -17 -16 -35 -5 -26 16 -62 6 -58 -16 7 -34 115
-82 219 -96 l36 -4 6 336 c6 359 -1 465 -34 543 -20 45 -62 90 -214 226 -40
35 -45 44 -36 61 9 17 25 21 107 27 175 13 222 5 353 -61 95 -49 123 -68 157
-111 97 -120 116 -232 115 -697 l0 -349 42 7 c55 9 458 25 474 19 7 -3 15 2
19 10 9 25 -15 555 -31 672 -9 61 -20 155 -25 210 -13 139 -36 200 -85 234
-22 15 -41 34 -43 43 -5 24 65 38 174 34 77 -3 99 -7 147 -32z m426 -492 c17
-43 23 -93 31 -245 19 -383 30 -696 30 -874 l0 -183 -42 0 -43 0 -2 358 c0
196 -6 445 -12 552 -6 107 -13 263 -15 345 -5 149 -5 150 14 125 10 -14 28
-49 39 -78z m-1009 61 c54 -118 68 -206 76 -475 l6 -198 -46 0 -46 0 0 308
c-1 169 -5 326 -9 350 -9 48 0 55 19 15z m265 -1337 l120 -11 6 -40 c4 -22 12
-52 17 -66 l10 -26 -74 5 c-70 4 -76 7 -113 43 -32 33 -45 39 -80 39 -23 0
-56 -7 -72 -16 -17 -8 -32 -14 -33 -12 -4 5 -26 84 -26 92 0 9 107 6 245 -8z
m959 -305 c9 -16 20 -55 25 -87 l9 -59 -76 -77 c-108 -109 -122 -115 -219 -99
-43 7 -96 22 -118 33 -38 19 -135 105 -135 119 0 4 17 3 38 -2 20 -5 71 -9
113 -9 90 0 107 10 229 134 83 85 110 94 134 47z m-887 -66 c12 -22 25 -59 29
-82 9 -58 -23 -88 -106 -98 -33 -4 -63 -11 -66 -16 -8 -14 -132 -10 -202 6
-89 21 -167 60 -220 111 -25 24 -44 46 -41 48 2 2 29 -2 59 -10 40 -11 97 -14
210 -12 l155 3 46 32 c25 17 51 39 59 48 21 26 53 14 77 -30z"/>
</g>
</svg>
